<mxfile host="app.diagrams.net" modified="2022-06-06T05:51:10.699Z" agent="5.0 (X11)" etag="p6x5cM8rJ2Avju8SAF5M" version="18.2.0" type="github">
  <diagram id="_RfGAIU3GtH744mLt9fp" name="第 1 页">
    <mxGraphModel dx="1038" dy="577" grid="1" gridSize="10" guides="1" tooltips="1" connect="1" arrows="1" fold="1" page="1" pageScale="1" pageWidth="827" pageHeight="1169" math="0" shadow="0">
      <root>
        <mxCell id="0" />
        <mxCell id="1" parent="0" />
        <mxCell id="sBzzpxsU2Bb2SH8Snrii-1" value="data" style="rounded=0;whiteSpace=wrap;html=1;" vertex="1" parent="1">
          <mxGeometry x="320" y="120" width="80" height="40" as="geometry" />
        </mxCell>
        <mxCell id="sBzzpxsU2Bb2SH8Snrii-2" value="rtag" style="rounded=0;whiteSpace=wrap;html=1;" vertex="1" parent="1">
          <mxGeometry x="400" y="120" width="80" height="40" as="geometry" />
        </mxCell>
        <mxCell id="sBzzpxsU2Bb2SH8Snrii-3" value="ltag" style="rounded=0;whiteSpace=wrap;html=1;fontStyle=0" vertex="1" parent="1">
          <mxGeometry x="240" y="120" width="80" height="40" as="geometry" />
        </mxCell>
        <mxCell id="sBzzpxsU2Bb2SH8Snrii-4" value="rchild" style="rounded=0;whiteSpace=wrap;html=1;" vertex="1" parent="1">
          <mxGeometry x="480" y="120" width="80" height="40" as="geometry" />
        </mxCell>
        <mxCell id="sBzzpxsU2Bb2SH8Snrii-6" value="lchild" style="rounded=0;whiteSpace=wrap;html=1;" vertex="1" parent="1">
          <mxGeometry x="160" y="120" width="80" height="40" as="geometry" />
        </mxCell>
      </root>
    </mxGraphModel>
  </diagram>
</mxfile>
